<svg id="Capa_1" data-name="Capa 1" xmlns="http://www.w3.org/2000/svg" viewBox="0 0 259 259"><defs><style>.cls-1{fill:#f8b936;}.cls-2{fill:#9f4409;}</style></defs><path class="cls-1" d="M54.5,137.67v66a10.81,10.81,0,0,0,.91,5c2,3.82,8,10.82,25.43,10.82,24,0,24-13.24,24-13.24s-2.93-54.9,0-68.58,10.72-24.91,24.79-24.4,21.56,12.79,23.72,24.4c1.79,9.63.61,50.51.16,64.14-.1,3,.16,6,1.93,8.37,2.84,3.8,9.2,9,22.86,9.31s20.43-5.05,23.65-9c2.06-2.54,2.53-5.87,2.53-9.13V137.67c0-50.14-48.81-76.28-74.85-76.17S54.5,78.9,54.5,137.67Z"/><path class="cls-2" d="M78,39.94c-1.22,0-2.5.05-3.81.15C63.4,40.87,56,50.65,56,61.44L54.5,115.92s6.65-35.1,41-48.66a4.15,4.15,0,0,0,2.68-3.83V60.56c0-10.81-6.13-20.59-16.94-20.62Z"/><path class="cls-2" d="M170.91,39.5h.81c12,.37,19.4,12.16,19.63,24.12.44,22.54.64,58.46-1.89,74.87-3.83,24.87-40.17,38.87-40.17,38.87v-112c0-12.84,8.1-25.57,20.94-25.9Z"/><path class="cls-2" d="M146.52,177.26V137s-6,15.44-13.18,23.16a62,62,0,0,1-27.14,17.11C97.26,180.06,146.52,181.68,146.52,177.26Z"/></svg>